<svg xmlns="http://www.w3.org/2000/svg" viewBox="0 0 744.54 98.31"><defs><style>.cls-1{fill:#3ad842;}.cls-2{fill:#fff;}</style></defs><title>Asset 2</title><g id="Layer_2" data-name="Layer 2"><g id="Layer_1-2" data-name="Layer 1"><path class="cls-1" d="M91.86,58.47h5.68a30.68,30.68,0,0,1-2.84,3.87A30.68,30.68,0,0,1,91.86,58.47Zm7.55-16H90a18.2,18.2,0,0,0-.79,4h11a17.64,17.64,0,0,0-.78-4Zm.78,8h-11a17.64,17.64,0,0,0,.78,4h9.42a17.64,17.64,0,0,0,.78-4ZM94.7,34.65a30.48,30.48,0,0,0-2.84,3.88h5.68A31.48,31.48,0,0,0,94.7,34.65Zm0-20.17a31.48,31.48,0,0,0,2.84-3.88H91.86A31.48,31.48,0,0,0,94.7,14.48Zm4.71-7.86a18.21,18.21,0,0,0,.78-4h-11a17.64,17.64,0,0,0,.78,4ZM94.7,82.52a29.72,29.72,0,0,0-2.84,3.87h5.68A30.68,30.68,0,0,0,94.7,82.52ZM90,90.38a18.2,18.2,0,0,0-.79,4h11a18.21,18.21,0,0,0-.78-4ZM88,21.94c1.14-1.34,2.3-2.57,3.4-3.76L92.45,17C88.91,12.71,86.33,8.05,86.33.63H80.75A32.66,32.66,0,0,0,88,21.94Zm13.5,5.25C100.3,28.52,99.15,29.76,98,31L97,32.14c3.54,4.28,6.12,8.94,6.12,16.36,0,10-4.66,15-10,20.74C87.27,75.41,80.75,82.4,80.75,96.36h5.58c0-10,4.65-15,10-20.74,5.75-6.17,12.27-13.16,12.27-27.12a32.65,32.65,0,0,0-7.19-21.31ZM88,69.81c1.15-1.33,2.3-2.58,3.4-3.77l1.1-1.18c-3.54-4.28-6.12-8.94-6.12-16.36,0-10,4.65-15,10-20.75,5.75-6.16,12.27-13.16,12.27-27.12h-5.57c0,10-4.66,15-10,20.74C87.27,27.54,80.75,34.54,80.75,48.5A32.66,32.66,0,0,0,88,69.81Zm13.5,5.24c-1.15,1.33-2.3,2.58-3.41,3.77-.37.4-.74.79-1.09,1.18,3.53,4.28,6.12,8.94,6.12,16.36h5.57a32.65,32.65,0,0,0-7.19-21.31Z"/><path class="cls-1" d="M66.21,56.41a24.2,24.2,0,0,1,4.72,14.78q0,12.35-7.62,19.25T41.45,97.36H0V1.49H40.44q13.61,0,21,6.37T68.91,26q0,8.69-4.28,14.45A19.59,19.59,0,0,1,53.42,48,22.17,22.17,0,0,1,66.21,56.41ZM21.54,40.68H35.65q11.22,0,11.22-10.31T35.4,20.07H21.54ZM48.88,67.93a10.43,10.43,0,0,0-3.15-8.06Q42.58,56.95,36.79,57H21.54V78.51H36.91Q48.88,78.51,48.88,67.93Z"/><path class="cls-1" d="M183.87,6.31A44.41,44.41,0,0,1,200.06,23.8,53.2,53.2,0,0,1,206,49.09a53.12,53.12,0,0,1-6,25.35A44.77,44.77,0,0,1,183.75,92a44.13,44.13,0,0,1-45.48,0A44.62,44.62,0,0,1,122,74.44a53.13,53.13,0,0,1-6-25.35,52.77,52.77,0,0,1,6-25.29A44.77,44.77,0,0,1,138.27,6.31a44.35,44.35,0,0,1,45.6,0ZM144.19,29Q138,36.35,138,49.09t6.24,20.06q6.24,7.47,16.82,7.46t16.75-7.46q6.3-7.45,6.3-20.06T177.83,29q-6.24-7.45-16.82-7.46T144.19,29Z"/><path class="cls-2" d="M326.4,2.17V97.36H304.86V37.83L285.71,97.36H267.06L247.79,37.7V97.36H226.24V2.17h26.34l24.06,66.31L300.2,2.17Z"/><path class="cls-2" d="M362.81,1.49V97.36H341.27V1.49Z"/><path class="cls-2" d="M438.09,84.34a26.1,26.1,0,0,1-10.58,10.17q-7,3.8-16.95,3.8-15,0-24.69-7.87t-10.59-22h22.93A13.49,13.49,0,0,0,401.8,77a10.61,10.61,0,0,0,7.88,3.12,8.79,8.79,0,0,0,6.55-2.44,8.93,8.93,0,0,0,2.39-6.51,8.74,8.74,0,0,0-2.2-6.1,17.3,17.3,0,0,0-5.48-4q-3.29-1.56-9.07-3.73a106.14,106.14,0,0,1-13.8-6,26.11,26.11,0,0,1-9.2-8.67q-3.84-5.77-3.84-15a26.62,26.62,0,0,1,4-14.78,26.2,26.2,0,0,1,11.15-9.56A38.28,38.28,0,0,1,406.53,0q14.87,0,23.62,7.59T440,28.48H416.73A13.3,13.3,0,0,0,413.52,21a9.08,9.08,0,0,0-7-2.78,8.63,8.63,0,0,0-6.11,2.17c-1.56,1.45-2.33,3.57-2.33,6.37a8.44,8.44,0,0,0,2.08,5.77,15.73,15.73,0,0,0,5.22,3.86q3.15,1.5,9.08,3.8a95.23,95.23,0,0,1,14,6.17,27.39,27.39,0,0,1,9.32,8.88q3.92,5.84,3.91,15.19A28,28,0,0,1,438.09,84.34Z"/><path class="cls-2" d="M514.06,84.34a26.06,26.06,0,0,1-10.59,10.17q-7,3.8-16.94,3.8-15,0-24.69-7.87t-10.59-22h22.93A13.49,13.49,0,0,0,477.77,77a10.61,10.61,0,0,0,7.88,3.12,8.79,8.79,0,0,0,6.55-2.44,8.93,8.93,0,0,0,2.39-6.51,8.74,8.74,0,0,0-2.2-6.1,17.3,17.3,0,0,0-5.48-4q-3.29-1.56-9.07-3.73a106.14,106.14,0,0,1-13.8-6,26,26,0,0,1-9.2-8.67q-3.84-5.77-3.84-15a26.62,26.62,0,0,1,4-14.78,26.2,26.2,0,0,1,11.15-9.56A38.28,38.28,0,0,1,482.5,0q14.87,0,23.62,7.59T516,28.48H492.7A13.3,13.3,0,0,0,489.49,21a9.08,9.08,0,0,0-7-2.78,8.63,8.63,0,0,0-6.11,2.17c-1.56,1.45-2.33,3.57-2.33,6.37a8.44,8.44,0,0,0,2.08,5.77,15.73,15.73,0,0,0,5.22,3.86q3.15,1.5,9.07,3.8a95.4,95.4,0,0,1,14,6.17,27.39,27.39,0,0,1,9.32,8.88q3.9,5.84,3.91,15.19A28,28,0,0,1,514.06,84.34Z"/><path class="cls-2" d="M551.16,1.49V97.36H529.62V1.49Z"/><path class="cls-2" d="M631.22,6.31A44.41,44.41,0,0,1,647.41,23.8a53.2,53.2,0,0,1,5.92,25.29,53.12,53.12,0,0,1-6,25.35A44.77,44.77,0,0,1,631.1,92a44.15,44.15,0,0,1-45.49,0,44.77,44.77,0,0,1-16.25-17.56,53.12,53.12,0,0,1-6-25.35,52.77,52.77,0,0,1,6-25.29A44.91,44.91,0,0,1,585.61,6.31a44.36,44.36,0,0,1,45.61,0ZM591.54,29q-6.24,7.4-6.24,20.14t6.24,20.06q6.23,7.47,16.81,7.46t16.76-7.46q6.3-7.45,6.3-20.06T625.17,29q-6.23-7.45-16.82-7.46T591.54,29Z"/><path class="cls-2" d="M744.54,97.36H723L687,38.51V97.36H665.43V1.49H687l36,59.39V1.49h21.54Z"/></g></g></svg>